<svg width="1919" height="192" viewBox="0 0 1919 192" fill="none" xmlns="http://www.w3.org/2000/svg">
<path d="M0 0L63.9667 5.3C127.933 11 255.867 21 383.8 53.3C511.733 85 639.667 139 767.6 160C895.533 181 1023.47 171 1151.4 144C1279.33 117 1407.27 75 1535.2 74.7C1663.13 75 1791.07 117 1855.03 138.7L1919 160V192H1855.03C1791.07 192 1663.13 192 1535.2 192C1407.27 192 1279.33 192 1151.4 192C1023.47 192 895.533 192 767.6 192C639.667 192 511.733 192 383.8 192C255.867 192 127.933 192 63.9667 192H0V0Z" fill="#C69CB7"/>
</svg>
