<svg width="1920" height="420" viewBox="0 0 1920 420" fill="none" xmlns="http://www.w3.org/2000/svg">
<g clip-path="url(#clip0_96_3)">
<path fill-rule="evenodd" clip-rule="evenodd" d="M238 167.433H267C295 167.433 352 167.433 409 185.433C467 203.433 524 239.433 581 245.433C638 251.433 695 227.433 752 191.433C809 155.433 867 107.433 924 137.433C981 167.433 1038 275.433 1095 293.433C1152 311.433 1209 239.433 1267 215.433C1324 191.433 1381 215.433 1409 227.433L1438 239.433V419.433H1409C1381 419.433 1324 419.433 1267 419.433C1209 419.433 1152 419.433 1095 419.433C1038 419.433 981 419.433 924 419.433C867 419.433 809 419.433 752 419.433C695 419.433 638 419.433 581 419.433C524 419.433 467 419.433 409 419.433C352 419.433 295 419.433 267 419.433H238V167.433Z" fill="#FFA5BA"/>
<path fill-rule="evenodd" clip-rule="evenodd" d="M0 181.8L22.4 191.9C46.4 202 91.2 222.2 137.6 207.05C182.4 191.9 228.8 141.4 273.6 101C320 60.6 366.4 30.3 411.2 60.6C457.6 90.9 502.4 181.8 548.8 222.2C593.6 262.6 640 252.5 686.4 232.3C731.2 212.1 777.6 181.8 822.4 186.85C868.8 191.9 913.6 232.3 960 237.35C1006.4 242.4 1051.2 212.1 1097.6 186.85C1142.4 161.6 1188.8 141.4 1233.6 126.25C1280 111.1 1326.4 101 1371.2 80.8C1417.6 60.6 1462.4 30.3 1508.8 25.25C1553.6 20.2 1600 40.4 1646.4 70.7C1691.2 101 1737.6 141.4 1782.4 131.3C1828.8 121.2 1873.6 60.6 1897.6 30.3L1920 0V303H1897.6C1873.6 303 1828.8 303 1782.4 303C1737.6 303 1691.2 303 1646.4 303C1600 303 1553.6 303 1508.8 303C1462.4 303 1417.6 303 1371.2 303C1326.4 303 1280 303 1233.6 303C1188.8 303 1142.4 303 1097.6 303C1051.2 303 1006.4 303 960 303C913.6 303 868.8 303 822.4 303C777.6 303 731.2 303 686.4 303C640 303 593.6 303 548.8 303C502.4 303 457.6 303 411.2 303C366.4 303 320 303 273.6 303C228.8 303 182.4 303 137.6 303C91.2 303 46.4 303 22.4 303H0V181.8Z" fill="#FFA5BA"/>
<path d="M1941 296H0V420H1941V296Z" fill="#FFA5BA"/>
</g>
<defs>
<clipPath id="clip0_96_3">
<rect width="1920" height="420" fill="white"/>
</clipPath>
</defs>
</svg>
